<svg version="1.0" xmlns="http://www.w3.org/2000/svg" width="800.000000" height="800.000000" viewBox="0 0 800.000000 800.000000" preserveAspectRatio="xMidYMid meet">
  <metadata>
    <rdf:RDF xmlns:rdf="http://www.w3.org/1999/02/22-rdf-syntax-ns#" xmlns:rdfs="http://www.w3.org/2000/01/rdf-schema#" xmlns:dc="http://purl.org/dc/elements/1.1/">
      <rdf:Description dc:format="image/svg+xml" dc:Label="1" dc:ContentProducer="001191330110MACRLGPT8B00000" dc:ProduceID="367893621" dc:ReservedCode1="FDUl3b9Wx2ZqhosXB17I9m9z2fPOpzAORgi+JIf1HCo=" dc:ContentPropagator="001191330110MACRLGPT8B00000" dc:PropagateID="367893621" dc:ReservedCode2="FDUl3b9Wx2ZqhosXB17I9m9z2fPOpzAORgi+JIf1HCo="/>
    </rdf:RDF>
  </metadata>
  <g transform="translate(0.000000,800.000000) scale(0.100000,-0.100000)" fill="#000000" stroke="none">
    <path d="M3665 5854 c-16 -2 -73 -9 -125 -15 -179 -20 -420 -92 -610 -182 -556 -261 -1012 -806 -1131 -1349 -83 -378 -6 -690 235 -955 115 -126 307 -256 636 -433 85 -45 162 -89 171 -97 12 -10 18 -37 21 -101 3 -72 9 -96 33 -141 60 -110 154 -158 294 -148 42 2 152 21 245 41 l169 37 92 -15 c128 -22 256 -20 371 5 l96 20 171 -42 c136 -34 191 -43 262 -43 108 -1 148 16 218 94 57 64 77 120 84 242 l6 97 151 82 c511 277 735 519 811 874 24 108 24 321 2 437 -60 305 -261 676 -500 925 -51 52 -51 52 -31 74 10 12 31 30 45 40 27 19 27 19 94 -12 61 -29 73 -31 143 -27 121 7 202 59 252 162 100 202 -40 428 -265 430 -199 2 -346 -190 -290 -380 l17 -58 -49 -43 c-26 -23 -52 -42 -57 -43 -4 0 -42 29 -85 64 -359 299 -853 471 -1335 465 -61 -1 -124 -4 -141 -5z m385 -129 c593 -71 1103 -387 1443 -893 151 -225 249 -487 272 -724 13 -132 -29 -347 -91 -469 -110 -219 -303 -378 -744 -616 l-145 -78 -6 -125 c-7 -136 -13 -159 -54 -208 -65 -77 -108 -78 -393 -7 l-182 45 -73 -22 c-94 -30 -292 -32 -408 -5 -74 17 -78 17 -150 -2 -114 -32 -317 -71 -363 -71 -64 0 -127 36 -153 90 -19 37 -23 61 -23 140 0 62 -4 102 -12 112 -7 8 -92 57 -188 108 -406 215 -584 338 -696 479 -247 310 -263 683 -49 1138 104 219 306 479 502 643 437 366 973 531 1513 465z m1618 0 c75 -32 112 -86 112 -165 0 -70 -24 -117 -79 -152 -41 -26 -53 -29 -108 -26 -51 3 -69 9 -100 34 -82 67 -94 179 -27 254 61 68 127 86 202 55z"/>
    <path d="M3710 5413 c-395 -22 -742 -172 -987 -427 -167 -172 -254 -338 -304 -575 -40 -195 -20 -282 88 -381 113 -104 267 -176 504 -236 474 -120 1075 -122 1526 -4 227 59 426 154 520 248 92 93 117 183 93 343 -58 402 -361 761 -785 929 -187 74 -445 115 -655 103z m250 -127 c402 -49 722 -235 920 -537 71 -108 117 -216 141 -334 21 -100 24 -171 9 -209 -5 -14 -25 -43 -45 -65 -107 -118 -353 -219 -677 -276 -694 -122 -1599 37 -1769 311 -19 31 -21 45 -16 112 21 303 203 595 483 778 110 71 180 105 304 147 230 77 427 99 650 73z"/>
    <path d="M3236 5129 c-50 -39 -22 -119 42 -119 60 0 86 76 42 120 -26 26 -51 25 -84 -1z"/>
    <path d="M3085 5028 c-65 -37 -237 -198 -299 -278 -63 -82 -146 -221 -146 -246 0 -59 80 -71 115 -17 11 17 40 64 65 104 59 94 172 214 274 290 97 73 107 89 79 127 -22 30 -57 38 -88 20z"/>
    <path d="M3157 4722 c-15 -16 -17 -49 -17 -254 0 -248 0 -248 47 -262 17 -5 29 -1 48 18 l26 26 -3 231 c-3 215 -4 232 -22 245 -27 19 -60 18 -79 -4z"/>
    <path d="M4330 4720 c-19 -19 -20 -33 -20 -250 0 -217 1 -231 20 -250 24 -24 48 -25 78 -4 22 15 22 18 22 254 0 236 0 239 -22 254 -30 21 -54 20 -78 -4z"/>
  </g>
</svg>